<svg viewBox="0 0 274 357" style="background-color:#ffffff00" xmlns="http://www.w3.org/2000/svg" width="110" height="147"><path d="M175.669 218.3c-1.561 2.361-2.9 4.941-4.439 7.32 4.504 3.006 9.969 5.965 14.039 9.961 1.221 1.197 3.049 2.791 3.422 4.561.121.58-1.227 1.279-1.922 1.619-2.287 1.121-5.193 1.82-7.92 2.34-4.043.772-7.961 1.133-12.18 1.439-8.742.637-17.504.781-26.459.781-13.461 0-27.322-.215-40.38.48-4.178.221-8.719.725-11.46 2.16-3.034 1.588-5.423 3.875-6.72 6.898-1.415 3.299-1.231 7.906-.12 11.58 2.075 6.873 5.882 12.25 9.84 17.4 1.978 2.572 3.993 5.059 6.12 7.5 4.209 4.832 8.714 9.412 13.32 13.92 2.142 2.098 4.357 4.127 6.539 6.24.078.076.326.186.24.359-18.986-2.791-34.885-8.686-48.72-16.74-13.806-8.037-25.699-17.85-35.82-29.639-9.983-11.629-18.436-25.203-24.3-41.16-5.838-15.885-9.564-34.709-8.279-56.581 1.184-20.163 6.64-37.24 13.859-51.6 5.546-11.031 11.973-20.673 19.74-29.4 2.555-2.871 5.171-5.651 7.92-8.4 5.445-5.445 11.662-10.163 18.119-14.64 6.461-4.479 13.475-8.409 20.94-11.76 13.207-5.928 28.023-10.177 45.72-11.52 2.54-.192 5.164-.174 7.861-.3 5.439-.253 11.738.165 16.74.72 15.605 1.733 28.99 5.729 40.859 11.04 15.996 7.158 29.557 16.837 40.98 28.26 11.51 11.508 21.121 25.001 28.26 40.98 7.182 16.067 11.943 34.417 11.82 57.42-.059 11.177-1.699 21.414-3.9 30.72-2.193 9.287-5.457 17.688-9.119 25.5-5.476 11.68-12.522 22.172-20.519 31.439-2.676 3.102-5.473 6.172-8.4 8.881-17.937 16.598-39.257 29.742-68.28 35.58-8.623 1.734-19.018 2.928-29.881 2.52-.976-.037-1.087-.084-1.619-.539-5.959-5.109-11.797-10.477-17.4-16.08-5.541-5.541-10.931-11.305-15.779-17.641-2.366-3.092-4.808-6.514-6.601-10.141-.849-1.717-1.858-3.785-2.34-6.059-.556-2.623-.185-4.859 1.5-6.24 1.587-1.301 3.765-1.566 6.54-1.861 7.761-.822 16.006-.658 24.359-.658 16.73-.002 33.818.318 49.08-1.141 5.106-.488 9.941-1.107 14.34-2.34 4.287-1.201 8.223-2.9 10.5-6.24 1.232-1.807 1.861-4.117 1.381-6.66-.434-2.297-1.459-3.99-2.699-5.641-4.769-6.334-12.193-10.398-18.781-14.641zm12.18-124.319c-.277 1.081-.623 2.097-.898 3.18 2.576.046 4.178.863 5.039 2.52 1.986 3.822-.402 9.87-1.5 13.32-7.365 23.154-14.906 46.308-22.199 69.24-1.24 3.9-2.693 7.803-3.301 11.94h9.779c10.49-32.415 20.969-64.829 31.561-97.14h2.881c-10.477 32.399-21.045 64.718-31.5 97.14h3c10.793-33.351 21.461-66.818 32.039-100.38h-24.779c-.084.016-.068.132-.121.18zm-136.319 65.4c-3.429.781-5.969 2.369-7.98 4.38-2.55 2.55-5.23 6.433-4.319 11.759.361 2.119 1.309 4.098 2.34 5.881 2.173 3.759 4.271 6.18 6.72 9.72 1.091 1.578 2.584 3.414 2.64 5.64.02.783-.114 1.629-.48 2.1-.696.9-2.715 1.076-4.08.301-.967-.549-1.641-1.514-2.28-2.281-.739-.885-1.443-1.707-2.04-2.58-1.304-1.907-3.083-5.03-5.88-5.28-5.423-.482-7.52 5.473-4.561 9.42 1.447 1.93 3.93 3.529 6.361 4.5 2.516 1.006 6.018 1.564 9.539 1.26 6.082-.525 11.4-3.504 13.98-7.859 1.381-2.331 2.173-5.637 1.44-8.821-.69-2.998-2.152-5.157-3.6-7.319-2.258-3.37-4.67-6.285-6.96-9.421-.663-.906-1.69-2.254-1.86-3.599-.38-3.004 1.857-4.382 4.5-3.3 1.872.766 3.101 3.005 4.26 4.86 1.125 1.799 2.44 3.995 4.441 4.68 4.164 1.426 7.611-2.756 6.601-7.08-.608-2.594-3.254-4.673-5.58-5.88-2.558-1.326-6.043-1.781-9.481-1.56-1.215.078-2.545.213-3.72.48zm56.7 19.261c2.232-2.053 4.307-4.435 4.92-7.861.682-3.815-.898-7.513-3-9.48-2.064-1.929-5.43-2.747-9.601-2.46-4.51.311-7.921 2.263-10.86 4.32-2.999 2.099-5.643 4.54-7.92 7.02-2.268 2.472-4.416 5.476-5.939 9-1.48 3.425-2.644 7.707-2.34 12.6.271 4.362 2.701 7.512 5.46 9.481 2.886 2.061 6.902 3.426 11.88 2.939 4.223-.412 7.977-2.129 10.92-4.019 2.249-1.443 4.253-3.219 5.82-5.4.523-.729 1.348-1.754 1.32-2.46-.02-.516-.586-1.094-.9-1.44-.37-.406-.634-1.025-1.44-.96-.333.027-1.036 1.035-1.5 1.561-1.522 1.725-3.358 3.288-5.28 4.379-2.438 1.385-7.623 2.394-9.66-.299-1.713-2.268-2.046-7.053-1.079-10.561 8.369.033 14.649-2.178 19.2-6.359zm34.378-2.221c.721-1.205 1.449-2.457 2.461-3.66 1.008-1.197 2.586-2.971 4.561-2.4 2.082.603 2.594 3.392 4.5 4.201 2.475 1.049 5.297-.014 6.779-1.261 1.644-1.381 2.623-3.494 2.701-6.06.158-5.251-3.516-8.949-9.121-8.4-2.104.206-4.113 1.509-5.52 2.82-4.422 4.124-6.885 9.748-9.961 15.061l.06-.121c.514-1.522.961-2.608 1.44-3.899.459-1.236 1.139-2.625 1.381-3.841.592-2.967-.316-5.489-1.621-7.08-1.41-1.721-3.428-2.767-6-2.94-4.587-.308-7.795 1.416-10.619 3.6-1.855 1.434-3.875 3.356-5.4 5.28-.492.622-1.277 1.639-1.26 2.34.023.893 1.415 2.482 2.279 2.459.638-.017 1.413-.813 1.86-1.26 1.192-1.191 1.737-2.19 3.06-3.18.462-.345 1.561-1.082 2.281-.66 1.02.598-.097 3.391-.421 4.38-2.853 8.714-5.697 17.089-8.46 25.681-.458 1.424-1.119 2.811-1.32 4.26.795.772 2.157.805 3.42.959 1.299.16 2.665.383 4.021.42 2.772.078 5.648-.518 7.559-1.32 3.16-8.889 6.789-17.772 11.339-25.379zm73.201-16.8c-4.617 1.122-8.361 3.144-11.4 5.76-4.002 3.444-7.41 8.02-9.24 13.62-.879 2.689-1.621 6.397-1.5 9.9.123 3.566 1.074 6.446 2.701 8.76 3.113 4.43 8.18 6.951 16.199 6.539 6.992-.357 12.148-2.734 16.441-6.42 4.23-3.633 7.271-7.963 9.18-13.68.971-2.904 1.678-6.073 1.619-9.779-.057-3.764-1.076-6.563-2.639-8.82-3.193-4.612-8.299-7.07-16.261-6.6-1.717.102-3.508.334-5.1.72zm-50.279 40.74c-.914 5.717-1.729 11.541-2.522 17.34-.264 1.941-.637 3.949-.478 5.941 1.078-.443 1.746-1.502 2.398-2.4 4.746-6.533 8.527-14.01 12.66-21.06h-12c-.068.01-.064.096-.059.18z" fill="#008fab"/><path d="M220.909 158.9c7.962-.47 13.067 1.988 16.261 6.6 1.563 2.258 2.582 5.057 2.639 8.82.059 3.706-.648 6.875-1.619 9.779-1.908 5.717-4.949 10.047-9.18 13.68-4.293 3.685-9.448 6.063-16.441 6.42-8.019.412-13.086-2.109-16.199-6.539-1.627-2.314-2.578-5.194-2.701-8.76-.121-3.504.621-7.211 1.5-9.9 1.83-5.6 5.238-10.176 9.24-13.62 3.039-2.615 6.783-4.638 11.4-5.76 1.592-.387 3.383-.619 5.1-.72z" fill="none"/><path d="M220.489 164.181c-2.135 1.208-3.723 3.652-5.1 5.94-2.934 4.876-4.711 9.802-6.24 15.96-.711 2.868-1.492 6.4-1.439 9.661.043 2.697 1.305 4.535 4.019 3.779 2.654-.738 4.5-3.662 5.881-5.76 1.473-2.238 2.793-4.949 3.898-7.74 1.704-4.299 3.054-8.679 3.841-13.619.424-2.666 1.047-7.453-1.02-8.581-.574-.313-1.727-.303-2.161-.24-.746.108-1.225.343-1.68.6z" fill="#008fab"/><path d="M97.189 177.5c1.973-1.819 4.159-5.034 4.381-8.34.1-1.486-.02-3.186-.78-3.72-.883-.62-2.78-.234-3.54.18-2.173 1.187-3.676 3.706-4.92 6.18-1.333 2.651-2.129 5.702-2.58 8.58 3.279-.051 5.563-1.148 7.439-2.88z" fill="#008fab"/><path d="M89.03 185c-.967 3.508-.634 8.293 1.079 10.561 2.037 2.693 7.223 1.684 9.66.299 1.922-1.092 3.758-2.655 5.28-4.379.464-.525 1.167-1.533 1.5-1.561.807-.065 1.07.554 1.44.96.314.347.88.925.9 1.44.027.705-.797 1.731-1.32 2.46-1.567 2.182-3.571 3.957-5.82 5.4-2.943 1.891-6.697 3.607-10.92 4.019-4.978.486-8.994-.879-11.88-2.939-2.759-1.969-5.189-5.119-5.46-9.481-.305-4.893.859-9.175 2.34-12.6 1.523-3.524 3.672-6.528 5.939-9 2.277-2.48 4.921-4.92 7.92-7.02 2.939-2.057 6.351-4.009 10.86-4.32 4.171-.287 7.537.531 9.601 2.46 2.102 1.966 3.682 5.665 3 9.48-.613 3.426-2.688 5.809-4.92 7.861-4.551 4.182-10.831 6.393-19.2 6.359z" fill="none"/><path d="M56.749 356.601h8.641c5.588-13.15 11.197-26.283 16.739-39.481-2.508-.951-4.876-2.043-7.319-3.059-6.056 14.145-12.074 28.326-18.061 42.539z" fill="#008fab"/><path d="M194.45 232.94c1.24 1.65 2.266 3.344 2.699 5.641.48 2.543-.148 4.853-1.381 6.66-2.277 3.34-6.213 5.039-10.5 6.24-4.398 1.232-9.234 1.852-14.34 2.34-15.262 1.459-32.35 1.139-49.08 1.141-8.354 0-16.599-.164-24.359.658-2.775.295-4.953.561-6.54 1.861-1.685 1.381-2.056 3.617-1.5 6.24.481 2.273 1.491 4.342 2.34 6.059 1.793 3.627 4.234 7.049 6.601 10.141 4.849 6.336 10.238 12.1 15.779 17.641 5.604 5.603 11.441 10.971 17.4 16.08.531.455.643.502 1.619.539 10.863.408 21.258-.785 29.881-2.52 29.024-5.838 50.344-18.982 68.28-35.58 2.928-2.709 5.725-5.779 8.4-8.881 7.998-9.268 15.043-19.76 20.519-31.439 3.662-7.813 6.926-16.213 9.119-25.5 2.201-9.307 3.842-19.543 3.9-30.72.123-23.003-4.639-41.353-11.82-57.42-7.139-15.978-16.75-29.472-28.26-40.98-11.423-11.423-24.983-21.102-40.98-28.26-11.869-5.312-25.254-9.307-40.859-11.04-5.002-.555-11.301-.973-16.74-.72-2.697.125-5.321.107-7.861.3-17.696 1.343-32.513 5.592-45.72 11.52-7.466 3.352-14.48 7.281-20.94 11.76-6.457 4.477-12.674 9.195-18.119 14.64-2.749 2.749-5.365 5.53-7.92 8.4-7.768 8.727-14.194 18.369-19.74 29.4-7.22 14.36-12.676 31.438-13.859 51.6-1.285 21.872 2.441 40.696 8.279 56.581 5.864 15.957 14.316 29.531 24.3 41.16 10.121 11.789 22.015 21.602 35.82 29.639 13.835 8.055 29.733 13.949 48.72 16.74.086-.174-.162-.283-.24-.359-2.182-2.113-4.397-4.143-6.539-6.24-4.607-4.508-9.111-9.088-13.32-13.92-2.127-2.441-4.142-4.928-6.12-7.5-3.958-5.15-7.765-10.527-9.84-17.4-1.11-3.674-1.295-8.281.12-11.58 1.297-3.023 3.686-5.311 6.72-6.898 2.741-1.436 7.282-1.939 11.46-2.16 13.059-.695 26.92-.48 40.38-.48 8.955 0 17.717-.145 26.459-.781 4.219-.307 8.137-.668 12.18-1.439 2.727-.519 5.633-1.219 7.92-2.34.695-.34 2.043-1.039 1.922-1.619-.373-1.77-2.201-3.363-3.422-4.561-4.07-3.996-9.535-6.955-14.039-9.961 1.539-2.379 2.879-4.959 4.439-7.32 6.588 4.242 14.012 8.307 18.781 14.641z" fill="none"/><path d="M191.81 38.36c2.537.963 4.918 2.082 7.381 3.12 5.566-13.116 11.145-26.493 16.738-39.54.166-.385.445-.761.42-1.2h-8.519c-5.418 12.462-10.674 25.087-16.02 37.62z" fill="#008fab"/></svg>