<?xml version="1.0" standalone="no"?><!-- Generator: Adobe Fireworks CS6, Export SVG Extension by Aaron Beall (http://fireworks.abeall.com) . Version: 0.6.1  --><!DOCTYPE svg PUBLIC "-//W3C//DTD SVG 1.1//EN" "http://www.w3.org/Graphics/SVG/1.1/DTD/svg11.dtd"><svg id="Untitled-Page%201" viewBox="0 0 274 357" style="background-color:#ffffff00" version="1.1"	xmlns="http://www.w3.org/2000/svg" xmlns:xlink="http://www.w3.org/1999/xlink" xml:space="preserve"	x="0px" y="0px" width="110px" height="147px">	<g>		<path d="M 175.6689 218.2998 C 174.1084 220.6611 172.7686 223.2412 171.2295 225.6201 C 175.7334 228.626 181.1982 231.585 185.2686 235.5811 C 186.4893 236.7783 188.3174 238.3721 188.6904 240.1416 C 188.8115 240.7217 187.4639 241.4209 186.7686 241.7607 C 184.4814 242.8818 181.5752 243.5811 178.8486 244.1006 C 174.8057 244.8721 170.8877 245.2334 166.6689 245.54 C 157.9268 246.1768 149.165 246.3213 140.21 246.3213 C 126.7495 246.3213 112.8882 246.1064 99.8296 246.8018 C 95.6519 247.0225 91.1108 247.5264 88.3696 248.9619 C 85.3354 250.5498 82.9468 252.8369 81.6499 255.8604 C 80.2349 259.1592 80.4194 263.7666 81.5298 267.4404 C 83.605 274.3135 87.4116 279.6904 91.3696 284.8408 C 93.3472 287.4131 95.3628 289.8994 97.4897 292.3408 C 101.6987 297.1729 106.2036 301.7529 110.8101 306.2607 C 112.9526 308.3584 115.1675 310.3877 117.3491 312.501 C 117.4272 312.5771 117.6753 312.6865 117.5894 312.8604 C 98.603 310.0693 82.7046 304.1748 68.8696 296.1201 C 55.064 288.083 43.1704 278.2705 33.0493 266.4814 C 23.0659 254.8525 14.6138 241.2783 8.7495 225.3213 C 2.9116 209.4365 -0.8149 190.6128 0.4702 168.7407 C 1.6538 148.5781 7.1099 131.501 14.3296 117.1406 C 19.8755 106.1094 26.3022 96.4678 34.0698 87.7407 C 36.6245 84.8701 39.2407 82.0894 41.9897 79.3403 C 47.4351 73.8955 53.6519 69.1772 60.1089 64.7007 C 66.5698 60.2217 73.5835 56.292 81.0493 52.9404 C 94.2563 47.0122 109.0728 42.7632 126.769 41.4204 C 129.3091 41.228 131.9331 41.2461 134.6299 41.1206 C 140.0693 40.8672 146.3682 41.2852 151.3701 41.8403 C 166.9756 43.5732 180.3604 47.5688 192.2295 52.8804 C 208.2256 60.0386 221.7861 69.7178 233.209 81.1406 C 244.7188 92.6484 254.3301 106.1421 261.4688 122.1206 C 268.6504 138.1875 273.4121 156.5376 273.2891 179.5405 C 273.2305 190.7173 271.5898 200.9541 269.3887 210.2607 C 267.1953 219.5479 263.9316 227.9482 260.2695 235.7607 C 254.793 247.4404 247.748 257.9326 239.75 267.2002 C 237.0742 270.3018 234.2773 273.3721 231.3496 276.0811 C 213.4131 292.6787 192.0928 305.8232 163.0693 311.6611 C 154.4463 313.3955 144.0518 314.5889 133.1885 314.1807 C 132.2124 314.1436 132.1011 314.0967 131.5698 313.6416 C 125.6108 308.5322 119.7729 303.165 114.1694 297.5615 C 108.6284 292.0205 103.2388 286.2568 98.3901 279.9209 C 96.0239 276.8291 93.5825 273.4072 91.7896 269.7803 C 90.9409 268.0635 89.9312 265.9951 89.4497 263.7217 C 88.894 261.0986 89.2651 258.8623 90.9497 257.4814 C 92.5366 256.1807 94.7144 255.915 97.4897 255.6201 C 105.2505 254.7979 113.4956 254.9619 121.8491 254.9619 C 138.5791 254.96 155.667 255.2803 170.9287 253.8213 C 176.0342 253.333 180.8701 252.7139 185.2686 251.4814 C 189.5557 250.2803 193.4912 248.5811 195.7686 245.2412 C 197.001 243.4346 197.6299 241.124 197.1494 238.5811 C 196.7158 236.2842 195.6904 234.5908 194.4502 232.9404 C 189.6807 226.6064 182.2568 222.542 175.6689 218.2998 ZM 187.8486 93.9805 C 187.5713 95.0615 187.2256 96.0771 186.9502 97.1606 C 189.5264 97.207 191.1279 98.0234 191.9893 99.6807 C 193.9756 103.5029 191.5869 109.5508 190.4893 113.0005 C 183.124 136.1548 175.583 159.3086 168.29 182.2407 C 167.0498 186.1411 165.5967 190.0435 164.9893 194.1807 C 168.249 194.1807 171.5088 194.1807 174.7686 194.1807 C 185.2588 161.7661 195.7373 129.3521 206.3291 97.0405 C 207.29 97.0405 208.249 97.0405 209.21 97.0405 C 198.7334 129.4399 188.165 161.7588 177.71 194.1807 C 178.71 194.1807 179.71 194.1807 180.71 194.1807 C 191.5029 160.8301 202.1709 127.3628 212.749 93.8003 C 204.4893 93.8003 196.2295 93.8003 187.9697 93.8003 C 187.8857 93.8164 187.9014 93.9321 187.8486 93.9805 ZM 51.5298 159.3804 C 48.1011 160.1611 45.561 161.749 43.5493 163.7607 C 40.9995 166.3105 38.3188 170.1938 39.23 175.52 C 39.5913 177.6392 40.5386 179.6177 41.5698 181.4009 C 43.7427 185.1597 45.8413 187.5806 48.2896 191.1206 C 49.3804 192.6987 50.8735 194.5342 50.9292 196.7607 C 50.9487 197.5439 50.8149 198.3896 50.4497 198.8604 C 49.7534 199.7607 47.7349 199.9365 46.3696 199.1611 C 45.4028 198.6123 44.729 197.6475 44.0894 196.8799 C 43.3501 195.9951 42.646 195.1729 42.0493 194.2998 C 40.7456 192.3931 38.9663 189.27 36.1694 189.02 C 30.7466 188.5376 28.6499 194.4932 31.6089 198.4404 C 33.0562 200.3701 35.5386 201.9697 37.9702 202.9404 C 40.4858 203.9463 43.9878 204.5049 47.5093 204.2002 C 53.5913 203.6748 58.9097 200.6963 61.4897 196.3408 C 62.8706 194.0103 63.6626 190.7036 62.9292 187.52 C 62.2388 184.522 60.7769 182.3628 59.3296 180.2007 C 57.0718 176.8306 54.6597 173.9155 52.3696 170.7798 C 51.7065 169.8735 50.6792 168.5259 50.5093 167.1807 C 50.1294 164.1763 52.3667 162.7988 55.0093 163.8804 C 56.8813 164.6465 58.1099 166.8853 59.269 168.7407 C 60.394 170.5396 61.7085 172.7358 63.7095 173.4204 C 67.8735 174.8462 71.3208 170.6646 70.3101 166.3403 C 69.7026 163.7466 67.0562 161.667 64.73 160.4604 C 62.1724 159.1343 58.687 158.6792 55.2495 158.9004 C 54.0347 158.9785 52.7046 159.1133 51.5298 159.3804 ZM 108.23 178.6411 C 110.4624 176.5884 112.5366 174.2056 113.1499 170.7798 C 113.8315 166.9648 112.2515 163.2666 110.1499 161.3003 C 108.0864 159.3711 104.7202 158.5532 100.5493 158.8403 C 96.0396 159.1514 92.6284 161.1035 89.689 163.1606 C 86.6899 165.2598 84.0464 167.7002 81.769 170.1802 C 79.5015 172.6519 77.353 175.6558 75.8296 179.1802 C 74.3491 182.605 73.1851 186.8872 73.4897 191.7798 C 73.7603 196.1416 76.1909 199.292 78.9497 201.2607 C 81.8354 203.3213 85.8521 204.6865 90.8296 204.2002 C 95.0522 203.7881 98.8062 202.0713 101.7495 200.1807 C 103.9985 198.7373 106.0024 196.9619 107.5698 194.7803 C 108.0933 194.0518 108.9175 193.0259 108.8901 192.3208 C 108.8696 191.8052 108.3042 191.2271 107.9897 190.8804 C 107.6196 190.4741 107.356 189.855 106.5493 189.9204 C 106.2163 189.9478 105.5132 190.9556 105.0493 191.481 C 103.5269 193.2056 101.6909 194.7686 99.769 195.8604 C 97.3315 197.2451 92.146 198.2549 90.1089 195.5615 C 88.396 193.2935 88.063 188.5083 89.0298 185.0005 C 97.3989 185.0337 103.6792 182.8228 108.23 178.6411 ZM 142.6084 176.4204 C 143.3291 175.2153 144.0576 173.9634 145.0693 172.7603 C 146.0771 171.563 147.6553 169.7896 149.6299 170.3599 C 151.7119 170.9634 152.2236 173.7524 154.1299 174.561 C 156.6045 175.6099 159.4268 174.5474 160.9092 173.3003 C 162.5537 171.9194 163.5322 169.8062 163.6104 167.2407 C 163.7686 161.9897 160.0947 158.2915 154.4893 158.8403 C 152.3857 159.0464 150.376 160.3491 148.9697 161.6606 C 144.5479 165.7842 142.085 171.4087 139.0088 176.7212 C 139.0088 176.6606 139.0576 176.6489 139.0693 176.6001 C 139.583 175.0786 140.0303 173.9917 140.5088 172.7007 C 140.9678 171.4644 141.6475 170.0757 141.8896 168.8599 C 142.4814 165.8926 141.5732 163.3711 140.2686 161.7803 C 138.8584 160.0591 136.8408 159.0132 134.2686 158.8403 C 129.6812 158.5327 126.4731 160.2563 123.6499 162.4404 C 121.7954 163.8745 119.7749 165.7964 118.2495 167.7207 C 117.7573 168.3423 116.9722 169.3599 116.9897 170.061 C 117.0132 170.9536 118.4048 172.5435 119.269 172.52 C 119.9067 172.5034 120.6821 171.7075 121.1294 171.2603 C 122.3218 170.0688 122.8667 169.0708 124.189 168.0806 C 124.6509 167.7354 125.7495 166.9985 126.4702 167.4204 C 127.4907 168.0181 126.3735 170.811 126.0493 171.8003 C 123.1968 180.5142 120.3521 188.8892 117.5894 197.4814 C 117.1313 198.9053 116.4702 200.292 116.269 201.7412 C 117.064 202.5127 118.4263 202.5459 119.689 202.7002 C 120.9878 202.8604 122.354 203.083 123.7095 203.1201 C 126.4819 203.1982 129.3579 202.6025 131.269 201.7998 C 134.4287 192.9106 138.0576 184.0278 142.6084 176.4204 ZM 215.8096 159.6206 C 211.1924 160.7422 207.4482 162.7651 204.4092 165.3804 C 200.4072 168.8247 196.999 173.4009 195.1689 179.0005 C 194.29 181.6899 193.5479 185.397 193.6689 188.9009 C 193.792 192.4673 194.7432 195.3467 196.3701 197.6611 C 199.4834 202.0908 204.5498 204.6123 212.5693 204.2002 C 219.5615 203.8428 224.7168 201.4658 229.0098 197.7803 C 233.2402 194.1475 236.2813 189.8169 238.1895 184.1001 C 239.1602 181.1958 239.8672 178.0269 239.8086 174.3208 C 239.752 170.5571 238.7324 167.7583 237.1699 165.5005 C 233.9766 160.8887 228.8711 158.4302 220.9092 158.9004 C 219.1924 159.002 217.4014 159.2339 215.8096 159.6206 ZM 165.5303 200.3604 C 164.6162 206.0771 163.8018 211.9014 163.0088 217.7002 C 162.7451 219.6416 162.3721 221.6494 162.5303 223.6416 C 163.6084 223.1982 164.2764 222.1396 164.9287 221.2412 C 169.6748 214.708 173.4561 207.2314 177.5889 200.1807 C 173.5889 200.1807 169.5889 200.1807 165.5889 200.1807 C 165.5205 200.1904 165.5244 200.2764 165.5303 200.3604 Z" fill="#008fab"/>		<path d="M 220.9092 158.9004 C 228.8711 158.4302 233.9766 160.8887 237.1699 165.5005 C 238.7324 167.7583 239.752 170.5571 239.8086 174.3208 C 239.8672 178.0269 239.1602 181.1958 238.1895 184.1001 C 236.2813 189.8169 233.2402 194.1475 229.0098 197.7803 C 224.7168 201.4658 219.5615 203.8428 212.5693 204.2002 C 204.5498 204.6123 199.4834 202.0908 196.3701 197.6611 C 194.7432 195.3467 193.792 192.4673 193.6689 188.9009 C 193.5479 185.397 194.29 181.6899 195.1689 179.0005 C 196.999 173.4009 200.4072 168.8247 204.4092 165.3804 C 207.4482 162.7651 211.1924 160.7422 215.8096 159.6206 C 217.4014 159.2339 219.1924 159.002 220.9092 158.9004 Z" fill="none"/>		<path d="M 220.4893 164.1807 C 218.3545 165.3887 216.7666 167.8325 215.3896 170.1206 C 212.4561 174.9966 210.6787 179.9224 209.1494 186.0806 C 208.4385 188.9487 207.6572 192.481 207.71 195.7412 C 207.7529 198.4385 209.0146 200.2764 211.7295 199.5205 C 214.3838 198.7822 216.2295 195.8584 217.6104 193.7603 C 219.083 191.522 220.4033 188.811 221.5088 186.02 C 223.2129 181.7212 224.5625 177.3413 225.3496 172.4009 C 225.7734 169.7349 226.3965 164.9482 224.3301 163.8203 C 223.7559 163.5078 222.6035 163.5176 222.1689 163.5806 C 221.4229 163.689 220.9443 163.9233 220.4893 164.1807 Z" fill="#008fab"/>		<path d="M 97.189 177.5005 C 99.1616 175.6812 101.3481 172.4663 101.5698 169.1606 C 101.6694 167.6748 101.5503 165.9741 100.7896 165.4404 C 99.9067 164.8208 98.0093 165.2061 97.2495 165.6206 C 95.0767 166.8076 93.5737 169.3267 92.3296 171.8003 C 90.9966 174.4517 90.2007 177.5024 89.7495 180.3804 C 93.0288 180.3296 95.312 179.2329 97.189 177.5005 Z" fill="#008fab"/>		<path d="M 89.0298 185.0005 C 88.063 188.5083 88.396 193.2935 90.1089 195.5615 C 92.146 198.2549 97.3315 197.2451 99.769 195.8604 C 101.6909 194.7686 103.5269 193.2056 105.0493 191.481 C 105.5132 190.9556 106.2163 189.9478 106.5493 189.9204 C 107.356 189.855 107.6196 190.4741 107.9897 190.8804 C 108.3042 191.2271 108.8696 191.8052 108.8901 192.3208 C 108.9175 193.0259 108.0933 194.0518 107.5698 194.7803 C 106.0024 196.9619 103.9985 198.7373 101.7495 200.1807 C 98.8062 202.0713 95.0522 203.7881 90.8296 204.2002 C 85.8521 204.6865 81.8354 203.3213 78.9497 201.2607 C 76.1909 199.292 73.7603 196.1416 73.4897 191.7798 C 73.1851 186.8872 74.3491 182.605 75.8296 179.1802 C 77.353 175.6558 79.5015 172.6519 81.769 170.1802 C 84.0464 167.7002 86.6899 165.2598 89.689 163.1606 C 92.6284 161.1035 96.0396 159.1514 100.5493 158.8403 C 104.7202 158.5532 108.0864 159.3711 110.1499 161.3003 C 112.2515 163.2666 113.8315 166.9648 113.1499 170.7798 C 112.5366 174.2056 110.4624 176.5884 108.23 178.6411 C 103.6792 182.8228 97.3989 185.0337 89.0298 185.0005 Z" fill="none"/>		<path d="M 56.7495 356.6006 C 59.6294 356.6006 62.5093 356.6006 65.3901 356.6006 C 70.978 343.4502 76.5874 330.3174 82.1294 317.1201 C 79.6216 316.1689 77.2534 315.0771 74.8101 314.0615 C 68.7544 328.2061 62.7358 342.3877 56.7495 356.6006 Z" fill="#008fab"/>		<path d="M 194.4502 232.9404 C 195.6904 234.5908 196.7158 236.2842 197.1494 238.5811 C 197.6299 241.124 197.001 243.4346 195.7686 245.2412 C 193.4912 248.5811 189.5557 250.2803 185.2686 251.4814 C 180.8701 252.7139 176.0342 253.333 170.9287 253.8213 C 155.667 255.2803 138.5791 254.96 121.8491 254.9619 C 113.4956 254.9619 105.2505 254.7979 97.4897 255.6201 C 94.7144 255.915 92.5366 256.1807 90.9497 257.4814 C 89.2651 258.8623 88.894 261.0986 89.4497 263.7217 C 89.9312 265.9951 90.9409 268.0635 91.7896 269.7803 C 93.5825 273.4072 96.0239 276.8291 98.3901 279.9209 C 103.2388 286.2568 108.6284 292.0205 114.1694 297.5615 C 119.7729 303.165 125.6108 308.5322 131.5698 313.6416 C 132.1011 314.0967 132.2124 314.1436 133.1885 314.1807 C 144.0518 314.5889 154.4463 313.3955 163.0693 311.6611 C 192.0928 305.8232 213.4131 292.6787 231.3496 276.0811 C 234.2773 273.3721 237.0742 270.3018 239.75 267.2002 C 247.748 257.9326 254.793 247.4404 260.2695 235.7607 C 263.9316 227.9482 267.1953 219.5479 269.3887 210.2607 C 271.5898 200.9541 273.2305 190.7173 273.2891 179.5405 C 273.4121 156.5376 268.6504 138.1875 261.4688 122.1206 C 254.3301 106.1421 244.7188 92.6484 233.209 81.1406 C 221.7861 69.7178 208.2256 60.0386 192.2295 52.8804 C 180.3604 47.5688 166.9756 43.5732 151.3701 41.8403 C 146.3682 41.2852 140.0693 40.8672 134.6299 41.1206 C 131.9331 41.2461 129.3091 41.228 126.769 41.4204 C 109.0728 42.7632 94.2563 47.0122 81.0493 52.9404 C 73.5835 56.292 66.5698 60.2217 60.1089 64.7007 C 53.6519 69.1772 47.4351 73.8955 41.9897 79.3403 C 39.2407 82.0894 36.6245 84.8701 34.0698 87.7407 C 26.3022 96.4678 19.8755 106.1094 14.3296 117.1406 C 7.1099 131.501 1.6538 148.5781 0.4702 168.7407 C -0.8149 190.6128 2.9116 209.4365 8.7495 225.3213 C 14.6138 241.2783 23.0659 254.8525 33.0493 266.4814 C 43.1704 278.2705 55.064 288.083 68.8696 296.1201 C 82.7046 304.1748 98.603 310.0693 117.5894 312.8604 C 117.6753 312.6865 117.4272 312.5771 117.3491 312.501 C 115.1675 310.3877 112.9526 308.3584 110.8101 306.2607 C 106.2036 301.7529 101.6987 297.1729 97.4897 292.3408 C 95.3628 289.8994 93.3472 287.4131 91.3696 284.8408 C 87.4116 279.6904 83.605 274.3135 81.5298 267.4404 C 80.4194 263.7666 80.2349 259.1592 81.6499 255.8604 C 82.9468 252.8369 85.3354 250.5498 88.3696 248.9619 C 91.1108 247.5264 95.6519 247.0225 99.8296 246.8018 C 112.8882 246.1064 126.7495 246.3213 140.21 246.3213 C 149.165 246.3213 157.9268 246.1768 166.6689 245.54 C 170.8877 245.2334 174.8057 244.8721 178.8486 244.1006 C 181.5752 243.5811 184.4814 242.8818 186.7686 241.7607 C 187.4639 241.4209 188.8115 240.7217 188.6904 240.1416 C 188.3174 238.3721 186.4893 236.7783 185.2686 235.5811 C 181.1982 231.585 175.7334 228.626 171.2295 225.6201 C 172.7686 223.2412 174.1084 220.6611 175.6689 218.2998 C 182.2568 222.542 189.6807 226.6064 194.4502 232.9404 Z" fill="none"/>		<path d="M 191.8096 38.3604 C 194.3467 39.3232 196.7275 40.4424 199.1904 41.4805 C 204.7568 28.3647 210.335 14.9873 215.9287 1.9404 C 216.0947 1.5552 216.374 1.1797 216.3486 0.7402 C 213.5088 0.7402 210.6689 0.7402 207.8291 0.7402 C 202.4111 13.2021 197.1553 25.8276 191.8096 38.3604 Z" fill="#008fab"/>	</g></svg>